<?xml version="1.0" encoding="utf-8"?>
<!-- Generator: Adobe Illustrator 15.0.0, SVG Export Plug-In  -->
<!DOCTYPE svg PUBLIC "-//W3C//DTD SVG 1.1//EN" "http://www.w3.org/Graphics/SVG/1.1/DTD/svg11.dtd" [
	<!ENTITY ns_flows "http://ns.adobe.com/Flows/1.0/">
]>
<svg version="1.1"
	 xmlns="http://www.w3.org/2000/svg" xmlns:xlink="http://www.w3.org/1999/xlink" xmlns:a="http://ns.adobe.com/AdobeSVGViewerExtensions/3.0/"
	 x="0px" y="0px" width="224px" height="97px" viewBox="0 0 224 97" overflow="visible" enable-background="new 0 0 224 97"
	 xml:space="preserve">
<defs>
</defs>
<rect x="1" y="1" fill="#FFFFFF" stroke="#F4921F" stroke-width="2" stroke-miterlimit="10" width="222" height="95"/>
<path fill="#5E9D43" d="M187.605,39.558c6.476,7.291,18.377-1.864,20.054-10.075c1.069-5.232,1.358-10.38,0.535-15.589
	c0.71,0.075-0.579,0.15,0.131,0.226c-21.125,1.817-22.174,15.096-22.174,15.096S183.783,35.255,187.605,39.558z"/>
<path d="M20.426,28.902c1.256-0.866,2.49-1.533,3.701-2.002s2.259-0.703,3.145-0.703c0.885,0,1.452,0.254,1.699,0.762
	c0.508-0.586,1.139-0.898,1.895-0.938c0.221-0.013,0.495-0.02,0.82-0.02c0.325,0,0.527,0.042,0.605,0.127s0.149,0.244,0.215,0.479
	c0.065,0.234,0.104,0.364,0.117,0.391c0.013,0.026,0.02,0.068,0.02,0.127s-0.033,0.13-0.098,0.215
	c-0.065,0.085-0.14,0.166-0.225,0.244c-0.085,0.078-0.134,0.124-0.146,0.137c-2.878,4.128-5.82,8.835-8.828,14.121
	c3.099-2.747,5.872-4.72,8.32-5.918c0.156-0.078,0.306-0.117,0.449-0.117c0.208,0,0.345,0.134,0.41,0.4
	c0.065,0.267,0.098,0.647,0.098,1.143s-0.029,0.801-0.088,0.918s-0.361,0.352-0.908,0.703s-1.257,0.808-2.129,1.367
	c-0.873,0.56-1.797,1.179-2.773,1.855c-2.344,1.628-4.271,3.34-5.781,5.137c-1.953,2.356-3.353,4.258-4.199,5.703
	c-0.312,0.56-0.84,0.84-1.582,0.84c-1.472,0-2.207-0.696-2.207-2.09c0-1.419,0.696-2.871,2.09-4.355
	c1.042-1.106,1.999-2.012,2.871-2.715c0.872-0.703,1.348-1.101,1.426-1.191c0.963-1.445,2.272-3.496,3.926-6.152
	c-1.406,1.472-2.771,2.644-4.092,3.516c-1.322,0.872-2.308,1.309-2.959,1.309c-1.992,0-2.988-0.853-2.988-2.559
	c0-1.354,0.345-2.722,1.035-4.102c0.69-1.38,1.575-2.614,2.656-3.701C18,30.745,19.169,29.769,20.426,28.902z M27.857,28.404
	c-1.511,0.325-2.93,0.862-4.258,1.611s-2.422,1.55-3.281,2.402s-1.602,1.729-2.227,2.627c-1.172,1.68-1.758,2.981-1.758,3.906
	c0,0.222,0.055,0.332,0.166,0.332c0.11,0,0.358-0.117,0.742-0.352c0.384-0.234,0.928-0.635,1.631-1.201s1.484-1.24,2.344-2.021
	C23.209,33.873,25.422,31.438,27.857,28.404z"/>
<path d="M37.467,31.236c3.073-3.489,5.69-5.234,7.852-5.234c0.534,0,0.973,0.159,1.318,0.479c0.345,0.319,0.518,0.732,0.518,1.24
	s-0.361,1.357-1.084,2.549s-1.39,2.197-2.002,3.018c-0.326,0.417-0.693,0.625-1.104,0.625s-0.729-0.149-0.957-0.449
	c-0.228-0.3-0.342-0.651-0.342-1.055c0-0.898,0.481-1.914,1.445-3.047l-0.039-0.039c-0.43,0.039-1.494,0.886-3.193,2.539
	s-3.145,3.135-4.336,4.443s-2.484,2.9-3.877,4.775c-0.404,0.56-0.746,0.84-1.025,0.84c-0.28,0-0.651-0.088-1.113-0.264
	s-0.742-0.303-0.84-0.381s-0.146-0.208-0.146-0.391s0.052-0.394,0.156-0.635c0.104-0.241,0.296-0.583,0.576-1.025
	c0.28-0.442,0.703-1.159,1.27-2.148s1.448-2.487,2.646-4.492c1.198-2.005,1.914-3.216,2.148-3.633
	c0.495-0.859,0.898-1.484,1.211-1.875c0.586-0.742,1.575-1.113,2.969-1.113c0.312,0,0.469,0.195,0.469,0.586
	c0,0.612-0.566,1.765-1.699,3.457L37.467,31.236z"/>
<path d="M58.307,26.998c0.391,0,0.791,0.176,1.201,0.527s0.615,0.889,0.615,1.611s-0.254,1.66-0.762,2.812s-1.205,2.324-2.09,3.516
	c-0.886,1.191-1.859,2.312-2.92,3.359c-1.062,1.048-2.207,1.907-3.438,2.578s-2.347,1.006-3.35,1.006
	c-1.003,0-1.807-0.315-2.412-0.947s-0.908-1.511-0.908-2.637s0.276-2.373,0.83-3.74c0.553-1.367,1.266-2.575,2.139-3.623
	c0.872-1.048,1.816-1.989,2.832-2.822c2.122-1.706,3.984-2.559,5.586-2.559c0.716,0,1.256,0.176,1.621,0.527
	c0.13,0.117,0.195,0.222,0.195,0.312v0.117C57.629,27.011,57.916,26.998,58.307,26.998z M56.334,29.596h-0.137
	c-0.456,0-0.684-0.332-0.684-0.996c-0.951,0.312-1.947,0.859-2.988,1.641c-1.042,0.781-1.973,1.706-2.793,2.773
	c-1.667,2.136-2.513,3.938-2.539,5.41c0,0.729,0.267,1.094,0.801,1.094c0.534,0,1.328-0.352,2.383-1.055s2.1-1.706,3.135-3.008
	s1.81-2.432,2.324-3.389c0.514-0.957,0.771-1.608,0.771-1.953S56.516,29.596,56.334,29.596z"/>
<path d="M79.986,27.369l-0.234-0.938c0-0.534,0.186-0.954,0.557-1.26s0.836-0.459,1.396-0.459c1.094,0,1.641,0.696,1.641,2.09
	c0,1.003-0.495,2.386-1.484,4.15c-0.99,1.765-2.158,3.47-3.506,5.117s-2.777,3.079-4.287,4.297
	c-1.511,1.218-2.673,1.826-3.486,1.826c-0.814,0-1.39-0.222-1.729-0.664c-0.339-0.442-0.508-0.869-0.508-1.279
	s0.02-0.798,0.059-1.162c0.143-1.276,0.495-2.493,1.055-3.652c-1.394,1.823-2.891,3.46-4.492,4.912s-2.943,2.178-4.023,2.178
	c-0.521,0-0.938-0.156-1.25-0.469s-0.469-0.843-0.469-1.592s0.449-2.155,1.348-4.219s1.758-3.721,2.578-4.971
	c-0.3,0.183-0.563,0.273-0.791,0.273c-0.228,0-0.476-0.127-0.742-0.381c-0.267-0.254-0.4-0.452-0.4-0.596s0.098-0.352,0.293-0.625
	s0.944-0.947,2.246-2.021c1.302-1.074,2.194-1.611,2.676-1.611c0.481,0,0.94,0.091,1.377,0.273c0.436,0.183,0.654,0.433,0.654,0.752
	s-0.905,2.178-2.715,5.576c-1.81,3.398-2.715,5.241-2.715,5.527c0,0.039,0.013,0.059,0.039,0.059c0.273,0,1.637-1.394,4.092-4.18
	c2.454-2.786,4.385-5.078,5.791-6.875c0.195-0.325,0.488-0.488,0.879-0.488l0.176,0.02l1.074-0.215c0.169,0,0.335,0.065,0.498,0.195
	c0.163,0.13,0.244,0.247,0.244,0.352s-0.231,0.573-0.693,1.406c-0.462,0.833-1.214,2.409-2.256,4.727
	c-1.042,2.317-1.562,3.945-1.562,4.883c0,0.234,0.084,0.352,0.254,0.352c0.495,0,1.526-0.896,3.096-2.686
	c1.569-1.79,2.848-3.506,3.838-5.146C79.491,29.205,79.986,28.046,79.986,27.369z"/>
<path d="M92.037,38.873c0,0.573,0.391,0.859,1.172,0.859c0.417,0,0.94-0.208,1.572-0.625c0.631-0.417,1.201-0.872,1.709-1.367
	c1.354-1.341,2.122-2.012,2.305-2.012c0.338,0,0.508,0.488,0.508,1.465s-0.306,1.647-0.918,2.012
	c-1.862,1.68-3.301,2.702-4.316,3.066c-0.573,0.195-1.205,0.286-1.895,0.273c-0.69-0.013-1.374-0.312-2.051-0.898
	c-0.677-0.586-1.016-1.299-1.016-2.139s0.221-1.794,0.664-2.861c0.442-1.067,0.895-1.982,1.357-2.744
	c0.462-0.762,1.032-1.647,1.709-2.656c0.677-1.009,1.035-1.638,1.074-1.885l-0.039-0.039c-0.43,0.039-1.494,0.886-3.193,2.539
	s-3.103,3.093-4.209,4.316c-1.107,1.224-2.429,2.858-3.965,4.902c-0.43,0.56-0.781,0.84-1.055,0.84s-0.642-0.088-1.104-0.264
	s-0.745-0.303-0.85-0.381c-0.104-0.078-0.156-0.195-0.156-0.352s0.046-0.349,0.137-0.576c0.091-0.228,0.179-0.417,0.264-0.566
	c0.085-0.149,0.225-0.381,0.42-0.693s0.583-0.974,1.162-1.982c0.579-1.009,1.468-2.517,2.666-4.521
	c1.198-2.005,1.914-3.216,2.148-3.633c0.495-0.859,0.898-1.484,1.211-1.875c0.586-0.742,1.575-1.113,2.969-1.113
	c0.312,0,0.469,0.195,0.469,0.586c0,0.612-0.566,1.765-1.699,3.457l-0.82,1.23c2.252-2.5,4.153-4.082,5.703-4.746
	c0.755-0.325,1.436-0.488,2.041-0.488s1.087,0.163,1.445,0.488c0.358,0.325,0.537,0.687,0.537,1.084s-0.137,0.872-0.41,1.426
	s-0.55,1.048-0.83,1.484c-0.28,0.437-0.648,0.986-1.104,1.65c-0.456,0.664-0.703,1.025-0.742,1.084s-0.14,0.215-0.303,0.469
	c-0.163,0.254-0.283,0.439-0.361,0.557s-0.208,0.322-0.391,0.615c-0.183,0.293-0.329,0.537-0.439,0.732
	c-0.111,0.195-0.248,0.437-0.41,0.723c-0.163,0.286-0.293,0.534-0.391,0.742s-0.199,0.437-0.303,0.684
	C92.128,38.196,92.037,38.573,92.037,38.873z"/>
<path d="M115.318,37.486c0,0.391-0.039,0.671-0.117,0.84c-0.639,1.302-1.654,2.354-3.047,3.154
	c-1.394,0.801-2.604,1.201-3.633,1.201c-1.029,0-1.914-0.345-2.656-1.035s-1.113-1.394-1.113-2.109s0.358-1.758,1.074-3.125
	c0.716-1.367,1.432-2.63,2.148-3.789c0.716-1.159,1.074-1.787,1.074-1.885s-0.134-0.29-0.4-0.576c-0.267-0.286-0.4-0.498-0.4-0.635
	s0.27-0.495,0.811-1.074c0.54-0.579,1.198-1.152,1.973-1.719c0.774-0.566,1.367-0.85,1.777-0.85s0.777,0.183,1.104,0.547
	c0.325,0.364,0.488,0.696,0.488,0.996s-1.55,3.118-4.648,8.457c-0.039,0.078-0.146,0.251-0.322,0.518s-0.312,0.488-0.41,0.664
	s-0.212,0.388-0.342,0.635c-0.261,0.521-0.391,0.957-0.391,1.309c0,0.442,0.299,0.664,0.898,0.664c0.599,0,1.221-0.205,1.865-0.615
	s1.201-0.862,1.67-1.357c1.224-1.315,1.92-1.973,2.09-1.973C115.148,35.729,115.318,36.314,115.318,37.486z M118.482,20.436
	c0,0.742-0.346,1.487-1.035,2.236c-0.69,0.749-1.41,1.123-2.158,1.123c-0.749,0-1.123-0.391-1.123-1.172s0.328-1.526,0.986-2.236
	c0.657-0.71,1.383-1.064,2.178-1.064c0.352,0,0.631,0.098,0.84,0.293C118.378,19.811,118.482,20.084,118.482,20.436z"/>
<path d="M35.251,49.814h-8.449v-2.593h19.97v2.593h-8.449v32.066h-3.072V49.814z"/>
<path d="M50.274,64.552c0-6.721-0.816-18.002,10.465-18.002c11.281,0,10.465,11.281,10.465,18.002
	c0,6.72,0.816,18.001-10.465,18.001C49.458,82.553,50.274,71.271,50.274,64.552z M68.132,64.552c0-8.737,0.096-15.41-7.393-15.41
	c-7.489,0-7.393,6.673-7.393,15.41c0,8.736-0.096,15.409,7.393,15.409C68.228,79.961,68.132,73.288,68.132,64.552z"/>
<path d="M80.466,65.079v16.802h-3.072V47.222h9.553c6.673,0,8.353,2.208,8.353,8.305c0,4.32-0.72,7.201-5.376,8.257v0.096
	c4.848,1.009,5.136,1.585,5.136,13.97c0,1.344,0.24,2.688,0.336,4.032h-2.928c-0.288-1.008-0.432-6.769-0.48-8.641
	c-0.048-1.488,0.96-8.161-5.712-8.161H80.466z M80.466,62.487h4.993c4.608,0,6.769-1.2,6.769-7.009c0-4.752-1.872-5.664-5.473-5.664
	h-6.289V62.487z"/>
<path d="M100.962,64.552c0-6.721-0.816-18.002,10.465-18.002c11.281,0,10.465,11.281,10.465,18.002
	c0,6.72,0.815,18.001-10.465,18.001C100.146,82.553,100.962,71.271,100.962,64.552z M118.82,64.552c0-8.737,0.096-15.41-7.393-15.41
	s-7.393,6.673-7.393,15.41c0,8.736-0.096,15.409,7.393,15.409S118.82,73.288,118.82,64.552z"/>
<path d="M128.515,81.881V47.222h4.704l14.065,30.435l0.097-0.096V47.222h3.072v34.659h-4.656L131.684,51.11l-0.097,0.096v30.675
	H128.515z"/>
<path d="M178.289,64.552c0-6.721-0.816-18.002,10.465-18.002s10.465,11.281,10.465,18.002c0,6.72,0.816,18.001-10.465,18.001
	S178.289,71.271,178.289,64.552z M196.146,64.552c0-8.737,0.096-15.41-7.393-15.41s-7.393,6.673-7.393,15.41
	c0,8.736-0.096,15.409,7.393,15.409S196.146,73.288,196.146,64.552z"/>
<path d="M196.249,28.611c-12.666,9.062-28.225,4.621-42.002,1.096c-10.099-2.584-18.284-0.171-25.198,7.516
	c-0.165,0.161-0.34,0.331-0.527,0.518c-0.508,0.495-1.078,0.95-1.709,1.367c-0.632,0.417-1.156,0.625-1.572,0.625
	c-0.781,0-1.172-0.286-1.172-0.859c0-0.3,0.091-0.677,0.273-1.133c0.104-0.247,0.205-0.476,0.303-0.684s0.228-0.456,0.391-0.742
	c0.162-0.286,0.299-0.527,0.41-0.723c0.11-0.195,0.257-0.439,0.439-0.732c0.182-0.293,0.312-0.498,0.391-0.615
	s0.198-0.303,0.361-0.557c0.162-0.254,0.264-0.41,0.303-0.469s0.286-0.42,0.742-1.084c0.455-0.664,0.823-1.214,1.104-1.65
	c0.279-0.437,0.557-0.931,0.83-1.484s0.41-1.028,0.41-1.426s-0.18-0.759-0.537-1.084c-0.358-0.325-0.84-0.488-1.445-0.488
	s-1.286,0.163-2.041,0.488c-1.55,0.664-3.451,2.246-5.703,4.746l0.82-1.23c1.133-1.692,1.699-2.845,1.699-3.457
	c0-0.391-0.156-0.586-0.469-0.586c-1.394,0-2.383,0.371-2.969,1.113c-0.312,0.391-0.717,1.016-1.211,1.875
	c-0.234,0.417-0.951,1.628-2.148,3.633c-1.198,2.005-2.087,3.513-2.666,4.521c-0.58,1.009-0.967,1.67-1.162,1.982
	s-0.335,0.544-0.42,0.693c-0.084,0.149-0.172,0.339-0.264,0.566c-0.091,0.228-0.137,0.42-0.137,0.576s0.052,0.273,0.156,0.352
	c0.104,0.078,0.388,0.205,0.85,0.381s0.83,0.264,1.104,0.264s0.625-0.28,1.055-0.84c1.536-2.044,2.857-3.679,3.965-4.902
	c1.106-1.224,2.51-2.663,4.209-4.316s2.764-2.5,3.193-2.539l0.039,0.039c-0.039,0.247-0.397,0.876-1.074,1.885
	c-0.678,1.009-1.247,1.895-1.709,2.656c-0.463,0.762-0.915,1.677-1.357,2.744c-0.443,1.067-0.664,2.021-0.664,2.861
	s0.338,1.553,1.016,2.139c0.677,0.586,1.36,0.886,2.051,0.898c0.689,0.013,1.321-0.078,1.895-0.273
	c1.016-0.364,2.454-1.387,4.316-3.066c0.326-0.194,10.611-11.201,21.478-7.354c5.296,1.875,10.796,2.873,16.366,3.724
	c10.517,1.605,21.564,0.562,30.401-5.762C200.792,28.288,197.488,27.725,196.249,28.611z"/>
<path d="M188.151,28.215c-0.479-9.786,13.109-11.833,20.174-14.096c-0.71-0.075,0.579-0.15-0.131-0.226
	c0.823,5.209,0.534,10.356-0.535,15.589c-1.677,8.211-11.378,13.806-19.054,9.075c-1.022-0.631-4.363,0.936-3.62,1.393
	c6.353,3.916,14.177,2.581,19.888-1.886c7.728-6.043,6.528-16.707,5.185-25.206c-0.106-0.68-1.783-0.337-2.131-0.226
	c-8.089,2.592-24.192,5.294-23.639,16.617C184.332,30.161,188.213,29.457,188.151,28.215L188.151,28.215z"/>
<path fill-rule="evenodd" clip-rule="evenodd" d="M161.162,82.553c1.126-11.521,1.953-23.341,2.354-35.585
	c0.123-1.496-2.338-0.408-2.059-2.058c1.352-0.855,5.818-1.073,6.762,0.291c-0.034,1.24-2.364,0.185-2.057,1.767
	c0.359,12.286,1.088,24.202,2.352,35.585H161.162z"/>
<path fill-rule="evenodd" clip-rule="evenodd" d="M161.596,43.497c0.239-1.094,0.813-2.478,1.92-2.705
	c0.455-7.568,1.47-21.47,1.47-21.47s0.554,14.933,1.177,21.174c1.211,0.164,1.507,1.501,2.057,2.917
	C164.044,42.546,161.501,43.931,161.596,43.497z"/>
</svg>
